<?xml version="1.0" encoding="UTF-8" standalone="no"?>
<!-- Created with Inkscape (http://www.inkscape.org/) -->

<svg
   version="1.1"
   id="svg2"
   width="480"
   height="600"
   viewBox="0 0 480 600"
   sodipodi:docname="logoScamTitle.svg"
   inkscape:version="1.2.1 (9c6d41e410, 2022-07-14, custom)"
   xmlns:inkscape="http://www.inkscape.org/namespaces/inkscape"
   xmlns:sodipodi="http://sodipodi.sourceforge.net/DTD/sodipodi-0.dtd"
   xmlns="http://www.w3.org/2000/svg"
   xmlns:svg="http://www.w3.org/2000/svg">
  <defs
     id="defs6">
    <filter
       inkscape:collect="always"
       style="color-interpolation-filters:sRGB"
       id="filter1566"
       x="-0.062644279"
       y="-0.21620289"
       width="1.1252886"
       height="1.4324058">
      <feGaussianBlur
         inkscape:collect="always"
         stdDeviation="10.171578"
         id="feGaussianBlur1568" />
    </filter>
  </defs>
  <sodipodi:namedview
     id="namedview4"
     pagecolor="#ffffff"
     bordercolor="#666666"
     borderopacity="1.0"
     inkscape:showpageshadow="2"
     inkscape:pageopacity="0.0"
     inkscape:pagecheckerboard="0"
     inkscape:deskcolor="#d1d1d1"
     showgrid="true"
     inkscape:zoom="0.29756781"
     inkscape:cx="470.48099"
     inkscape:cy="352.86075"
     inkscape:window-width="1366"
     inkscape:window-height="712"
     inkscape:window-x="0"
     inkscape:window-y="0"
     inkscape:window-maximized="1"
     inkscape:current-layer="layer2">
    <inkscape:grid
       type="xygrid"
       id="grid116"
       originx="0"
       originy="0" />
  </sodipodi:namedview>
  <g
     inkscape:groupmode="layer"
     id="layer2"
     inkscape:label="Image 1"
     style="display:inline">
    <path
       style="mix-blend-mode:normal;fill:#463f57;fill-opacity:1;stroke:#000000;stroke-width:0;stroke-linecap:round;stroke-linejoin:round;stroke-dasharray:none;stroke-opacity:1"
       d="m 380,245 30,-17 v 82 L 245,410 c -2,1 -2.90985,1.1192 -5,0 L 75,318 c -2.09618,-1.32905 -5,-4 -5,-8 V 125 c 0,-4 2,-8 5,-10 L 230,25 c 9,-4 16,-4 25,0 l 145,85 c 5,3 10,10 10,15 v 70 l -30,17 v -67 c -0.12334,-7.05933 -5.25438,-11.95222 -10,-15 L 245,60 c -2,-1 -3,-1 -5,0 l -125,70 c -7,4 -10,10 -10,15 v 145 c -0.18127,3.10127 1,8 5,10 l 125,70 c 4,2 11,2 15,0 l 120,-70 c 4.9707,-2.91036 9.30112,-6.63786 10,-15 z"
       id="path183"
       sodipodi:nodetypes="cccccccccccccccccccccccccccc" />
    <path
       style="fill:#463f57;fill-opacity:1;stroke:#000000;stroke-width:0;stroke-linecap:butt;stroke-linejoin:miter;stroke-dasharray:none;stroke-opacity:1"
       d="m 130,275 c 0.0424,2.91428 5,7 10,10 l 95,55 c 5,2 10,2 15,0 l 95,-55 c 3,-2 10,-6 10,-10 V 162 c 0,-4 -1,-7 -5,-9 l -30,-17 -70,39 c -5,2 -10,2 -15,0 l -38,-22 c -3,-2 -3,-5 0,-7 l 43,-23 c 2,-1 3,-1 5,0 l 14,8 c 2,1 4,1 6,0 l 29,-14 -49,-29 c -2,-1 -3,-1 -5,0 l -107,58 c -2,2 -2,5 0,7 l 102,57 c 5,2 10.32437,2.67179 15,0 l 70,-40 v 90 l -70,45 c -5,2 -10,2 -15,0 l -65,-40 c -2,-1 -5,-6 -5,-10 v -55 l -35,-20 z"
       id="path1151"
       sodipodi:nodetypes="cccccccccccccccccccccccsccccccccc" />
    <text
       xml:space="preserve"
       style="font-style:normal;font-variant:normal;font-weight:normal;font-stretch:normal;font-size:118.536px;line-height:1.25;font-family:'Noto Serif Ahom';-inkscape-font-specification:'Noto Serif Ahom';letter-spacing:8.81902px;display:inline;fill:#000f00;fill-opacity:0.0882394;stroke:none;stroke-width:1.23474"
       x="-353.01083"
       y="670.11389"
       id="text1224-9-3"
       transform="scale(-1.2180928,0.82095552)"><tspan
         sodipodi:role="line"
         id="tspan1222-9-6"
         x="-353.01083"
         y="670.11389"
         style="font-style:normal;font-variant:normal;font-weight:normal;font-stretch:normal;font-size:118.536px;font-family:'Roboto Condensed';-inkscape-font-specification:'Roboto Condensed, ';fill:#000f00;fill-opacity:0.0882394;stroke-width:1.23474">SCAM</tspan></text>
    <text
       xml:space="preserve"
       style="font-style:normal;font-variant:normal;font-weight:normal;font-stretch:normal;font-size:118.536px;line-height:1.25;font-family:'Noto Serif Ahom';-inkscape-font-specification:'Noto Serif Ahom';letter-spacing:8.81902px;display:inline;fill:#000f00;fill-opacity:0.0882394;stroke:none;stroke-width:1.23474"
       x="-302.47415"
       y="670.11383"
       id="text1224-9-3-3"
       transform="scale(-1.2180928,0.82095552)"><tspan
         sodipodi:role="line"
         id="tspan1222-9-6-5"
         x="-302.47415"
         y="670.11383"
         style="font-style:normal;font-variant:normal;font-weight:normal;font-stretch:normal;font-size:118.536px;font-family:'Roboto Condensed';-inkscape-font-specification:'Roboto Condensed, ';fill:#000f00;fill-opacity:0.0882394;stroke-width:1.23474">SCA</tspan></text>
    <text
       xml:space="preserve"
       style="font-style:normal;font-variant:normal;font-weight:normal;font-stretch:normal;font-size:154.574px;line-height:1.25;font-family:'Noto Serif Ahom';-inkscape-font-specification:'Noto Serif Ahom';letter-spacing:11.5003px;display:inline;mix-blend-mode:normal;fill:#5d3f57;fill-opacity:0.317981;stroke:none;stroke-width:1.61014;filter:url(#filter1566)"
       x="237.13965"
       y="686.21997"
       id="text1224-1"
       transform="matrix(1.0264619,0,0,0.97422028,-210,-100)"><tspan
         sodipodi:role="line"
         id="tspan1222-7"
         x="237.13965"
         y="686.21997"
         style="font-style:normal;font-variant:normal;font-weight:normal;font-stretch:normal;font-size:154.574px;font-family:'Roboto Condensed';-inkscape-font-specification:'Roboto Condensed, ';fill:#5d3f57;fill-opacity:0.317981;stroke-width:1.61014">SCAM</tspan></text>
    <text
       xml:space="preserve"
       style="font-style:normal;font-variant:normal;font-weight:normal;font-stretch:normal;font-size:135.66px;line-height:1.25;font-family:'Noto Serif Ahom';-inkscape-font-specification:'Noto Serif Ahom';letter-spacing:10.0931px;display:inline;fill:#000f57;fill-opacity:0.323091;stroke:none;stroke-width:1.41313"
       x="39.370316"
       y="620.88721"
       id="text1224-9"
       transform="scale(1.1110929,0.90001475)"><tspan
         sodipodi:role="line"
         id="tspan1222-9"
         x="39.370316"
         y="620.88721"
         style="font-style:normal;font-variant:normal;font-weight:normal;font-stretch:normal;font-size:135.66px;font-family:'Roboto Condensed';-inkscape-font-specification:'Roboto Condensed, ';fill:#000f57;fill-opacity:0.323091;stroke-width:1.41313">SCAM</tspan></text>
    <text
       xml:space="preserve"
       style="font-style:normal;font-variant:normal;font-weight:normal;font-stretch:normal;font-size:135.66px;line-height:1.25;font-family:'Noto Serif Ahom';-inkscape-font-specification:'Noto Serif Ahom';letter-spacing:10.0931px;display:inline;fill:#465a7b;fill-opacity:0.46445;stroke:none;stroke-width:1.41313"
       x="38.470306"
       y="618.87311"
       id="text1224-0"
       transform="scale(1.1110929,0.90001475)"><tspan
         sodipodi:role="line"
         id="tspan1222-5"
         x="38.470306"
         y="618.87311"
         style="font-style:normal;font-variant:normal;font-weight:normal;font-stretch:normal;font-size:135.66px;font-family:'Roboto Condensed';-inkscape-font-specification:'Roboto Condensed, ';fill:#465a7b;fill-opacity:0.46445;stroke-width:1.41313">SCAM</tspan></text>
    <text
       xml:space="preserve"
       style="font-style:normal;font-variant:normal;font-weight:normal;font-stretch:normal;font-size:135.66px;line-height:1.25;font-family:'Noto Serif Ahom';-inkscape-font-specification:'Noto Serif Ahom';letter-spacing:10.0931px;fill:#463f57;fill-opacity:1;stroke:none;stroke-width:1.41313"
       x="39.370071"
       y="619.98425"
       id="text1224"
       transform="scale(1.1110929,0.90001475)"><tspan
         sodipodi:role="line"
         id="tspan1222"
         x="39.370071"
         y="619.98425"
         style="font-style:normal;font-variant:normal;font-weight:normal;font-stretch:normal;font-size:135.66px;font-family:'Roboto Condensed';-inkscape-font-specification:'Roboto Condensed, ';fill:#463f57;fill-opacity:1;stroke-width:1.41313">SCAM</tspan></text>
  </g>
</svg>
